<?xml version="1.0" encoding="UTF-8" standalone="no"?>
<svg height="512" id="svg1" version="1.1" viewBox="0 0 512 512" width="512" xmlns="http://www.w3.org/2000/svg" xml:space="preserve"><defs
   id="defs1" />
    <g style="fill:#ffffff" id="g1" transform="matrix(7.245283,0,0,7.245283,169.05661,169.0566)"><path
     style="fill:#ffffff;stroke-width:1.4752"
     d="M 22.653577,16.821192 18.90657,16.393385 c -0.899871,-0.103264 -1.784991,0.206528 -2.419327,0.840863 l -2.714367,2.714367 C 9.5980623,17.824328 6.1756003,14.416617 4.0513127,10.227051 L 6.7804313,7.4979319 c 0.634336,-0.634335 0.944128,-1.519455 0.840864,-2.4193267 L 7.1934873,1.3611028 C 7.0164633,-0.12884856 5.7625443,-1.2500001 4.2578406,-1.2500001 H 1.7057457 c -1.66697528,0 -3.0536627,1.38668744 -2.9503988,3.0536627 0.78185572,12.5982024 10.8574674,22.6590624 23.4409181,23.4409184 1.666975,0.103264 3.053663,-1.283424 3.053663,-2.950399 v -2.552095 c 0.01475,-1.489951 -1.1064,-2.743871 -2.596351,-2.920895 z"
     id="path2" /></g></svg>
